<svg width="20" height="20" viewBox="0 0 20 20" fill="none" xmlns="http://www.w3.org/2000/svg">
<path d="M2 4V3H0V4H1V16H2V15H20V4H2ZM19 14H2V5H19V14Z" fill="#74ABFF"/>
<path d="M14.5 12C14.9945 12 15.4778 11.8534 15.8889 11.5787C16.3 11.304 16.6205 10.9135 16.8097 10.4567C16.9989 9.9999 17.0484 9.49723 16.952 9.01228C16.8555 8.52732 16.6174 8.08187 16.2678 7.73223C15.9181 7.3826 15.4727 7.1445 14.9877 7.04804C14.5028 6.95157 14.0001 7.00108 13.5433 7.1903C13.0865 7.37952 12.696 7.69995 12.4213 8.11108C12.1466 8.5222 12 9.00555 12 9.5C12.0026 10.1622 12.2669 10.7966 12.7351 11.2649C13.2034 11.7331 13.8378 11.9974 14.5 12ZM14.5 8C14.7967 8 15.0867 8.08797 15.3334 8.2528C15.58 8.41762 15.7723 8.65189 15.8858 8.92598C15.9994 9.20007 16.0291 9.50167 15.9712 9.79264C15.9133 10.0836 15.7704 10.3509 15.5607 10.5607C15.3509 10.7704 15.0836 10.9133 14.7926 10.9712C14.5017 11.0291 14.2001 10.9994 13.926 10.8858C13.6519 10.7723 13.4176 10.58 13.2528 10.3334C13.088 10.0867 13 9.79667 13 9.5C13 9.10218 13.158 8.72065 13.4393 8.43934C13.7206 8.15804 14.1022 8 14.5 8Z" fill="#74ABFF"/>
<path d="M11 17H4V18H11V17Z" fill="#74ABFF"/>
<path d="M5 7H4V12H5V7Z" fill="#74ABFF"/>
<path d="M9 7H8V12H9V7Z" fill="#74ABFF"/>
</svg>
