<svg width="30" height="22" viewBox="0 0 30 22" fill="none" xmlns="http://www.w3.org/2000/svg">
<path fill-rule="evenodd" clip-rule="evenodd" d="M0 2C0 1.17157 0.884585 0.500001 1.97578 0.500001L28.5 0.5C29.3284 0.5 30 1.17157 30 2C30 2.82843 29.3284 3.5 28.5 3.5H1.97578C0.884585 3.5 0 2.82844 0 2Z" fill="#F4F4F4"/>
<path fill-rule="evenodd" clip-rule="evenodd" d="M0 11C0 10.1716 0.884585 9.5 1.97578 9.5L28.5 9.5C29.3284 9.5 30 10.1716 30 11C30 11.8284 29.3284 12.5 28.5 12.5H1.97578C0.884585 12.5 0 11.8284 0 11Z" fill="#F4F4F4"/>
<path fill-rule="evenodd" clip-rule="evenodd" d="M0 20C0 19.1716 0.884585 18.5 1.97578 18.5L28.5 18.5C29.3284 18.5 30 19.1716 30 20C30 20.8284 29.3284 21.5 28.5 21.5H1.97578C0.884585 21.5 0 20.8284 0 20Z" fill="#F4F4F4"/>
</svg>
