<svg width="20" height="20" viewBox="0 0 20 20" fill="none" xmlns="http://www.w3.org/2000/svg">
<g clip-path="url(#clip0_134_921)">
<path d="M20 4H14V0H13V4H7V0H6V4H0V5H2V13.2C2.00264 14.4722 2.5092 15.6916 3.40881 16.5912C4.30841 17.4908 5.52777 17.9974 6.8 18H9V20H11V18H13.2C14.4722 17.9974 15.6916 17.4908 16.5912 16.5912C17.4908 15.6916 17.9974 14.4722 18 13.2V5H20V4ZM17 13.2C16.9974 14.207 16.5962 15.172 15.8841 15.8841C15.172 16.5962 14.207 16.9974 13.2 17H6.8C5.79299 16.9974 4.82798 16.5962 4.11591 15.8841C3.40384 15.172 3.00264 14.207 3 13.2V5H17V13.2Z" fill="#74ABFF"/>
<path d="M11.8001 6.95999L10.9701 6.39999L7.68005 11.34H10.4501L8.20005 14.72L9.03005 15.28L12.3201 10.34H9.55005L11.8001 6.95999Z" fill="#74ABFF"/>
</g>
<defs>
<clipPath id="clip0_134_921">
<rect width="20" height="20" fill="white"/>
</clipPath>
</defs>
</svg>
